<svg xmlns="http://www.w3.org/2000/svg" xmlns:xlink="http://www.w3.org/1999/xlink" width="500" zoomAndPan="magnify" viewBox="0 0 375 389.999986" height="520" preserveAspectRatio="xMidYMid meet" version="1.0"><path fill="#F59D88" d="M 24.175781 35.121094 C 32.746094 22.902344 45.324219 16.058594 57.5 9.207031 C 66.269531 4.265625 76.179688 1.808594 86.734375 1.3125 C 103.335938 0.535156 117.984375 5.316406 130.855469 14.917969 C 138.683594 20.753906 145.601562 28.097656 151.890625 35.632812 C 157.480469 42.335938 161.960938 50.050781 166.355469 57.65625 C 173.027344 69.203125 177.835938 81.574219 181.019531 94.554688 C 184.140625 107.285156 186.773438 120.085938 187.183594 133.246094 C 187.199219 133.816406 187.65625 134.375 187.910156 134.941406 C 188.535156 134.285156 189.609375 133.695312 189.71875 132.964844 C 191.242188 122.753906 195.351562 113.425781 199.191406 103.972656 C 203.1875 94.125 208.273438 84.910156 215.109375 76.820312 C 221.324219 69.46875 227.8125 62.308594 234.648438 55.535156 C 244.183594 46.082031 253.695312 36.507812 264.066406 28.023438 C 274.671875 19.34375 286.890625 13.183594 300.53125 10.316406 C 321.511719 5.90625 341.160156 7.816406 357.039062 23.796875 C 366.261719 33.078125 371.441406 44.824219 373.097656 57.863281 C 374.03125 65.179688 375.042969 72.601562 374.757812 79.929688 C 374.277344 92.402344 371.722656 104.59375 368.308594 116.664062 C 363.222656 134.613281 355.320312 151.332031 347.527344 168.164062 C 341.058594 182.132812 335.574219 196.554688 329.207031 210.574219 C 325.285156 219.203125 320.585938 227.484375 316.109375 235.855469 C 311.816406 243.882812 307.582031 251.957031 302.921875 259.773438 C 292.988281 276.449219 282.835938 292.992188 272.707031 309.550781 C 259.71875 330.789062 246.824219 352.085938 233.53125 373.132812 C 230.386719 378.109375 226.191406 382.597656 221.804688 386.566406 C 218.042969 389.972656 213.726562 388.414062 210.425781 384.320312 C 207.609375 380.835938 204.15625 377.855469 200.9375 374.703125 C 188.355469 362.386719 175.320312 350.496094 163.308594 337.652344 C 154.699219 328.449219 147.25 318.128906 139.652344 308.027344 C 133.199219 299.449219 124.980469 292.851562 116.789062 286.175781 C 109.710938 280.40625 102.550781 274.734375 95.351562 269.109375 C 79.613281 256.816406 64.707031 243.589844 50.996094 229.066406 C 40.523438 217.96875 31.761719 205.597656 23.886719 192.511719 C 14.625 177.125 8.542969 160.492188 3.988281 143.300781 C 2.179688 136.457031 1.902344 129.183594 1.191406 122.082031 C 0.664062 116.816406 0 111.46875 0.371094 106.226562 C 1.53125 89.957031 4.207031 73.953125 11.589844 59.152344 C 15.582031 51.148438 19.828125 43.273438 24.175781 35.121094 M 270.945312 48.941406 C 263.054688 52.191406 255.421875 55.832031 250.03125 62.839844 C 242.273438 72.929688 233.746094 82.53125 226.972656 93.246094 C 218.789062 106.195312 211.835938 119.949219 204.835938 133.605469 C 198.472656 146.023438 197.261719 159.894531 195.136719 173.421875 C 194.058594 180.265625 194.007812 187.265625 193.257812 194.167969 C 192.554688 200.652344 186.847656 204.027344 182.921875 200.148438 C 181.359375 198.605469 181.617188 195.234375 181 192.707031 C 180.792969 191.863281 180.445312 191.050781 180.160156 190.226562 C 179.566406 190.910156 178.769531 191.507812 178.414062 192.300781 C 176.871094 195.75 175.609375 199.335938 173.945312 202.722656 C 172.613281 205.429688 167.519531 207.339844 165.527344 205.738281 C 163.105469 203.789062 160.496094 201.792969 162.492188 197.609375 C 165.742188 190.789062 168.464844 183.710938 171.253906 176.679688 C 172.539062 173.4375 173.835938 170.417969 171.96875 166.511719 C 167.144531 156.402344 162.859375 146.023438 158.53125 135.679688 C 151.460938 118.78125 142.03125 103.269531 130.863281 88.824219 C 125.15625 81.4375 118.960938 74.421875 112.921875 67.292969 C 101.28125 53.542969 88.332031 41.394531 71.320312 34.507812 C 64.699219 31.832031 57.84375 29.902344 50.609375 32.269531 C 43.980469 34.4375 40.363281 40.140625 36.375 45.121094 C 33.632812 48.542969 31.570312 52.785156 30.230469 56.988281 C 28.089844 63.714844 26.777344 70.628906 28.25 77.882812 C 29.339844 83.234375 28.980469 88.90625 30.285156 94.183594 C 33.972656 109.082031 39.488281 123.378906 46.667969 136.9375 C 54.046875 150.875 61.648438 164.707031 69.65625 178.289062 C 78.414062 193.140625 87.511719 207.804688 96.898438 222.269531 C 107.476562 238.566406 118.449219 254.613281 129.441406 270.636719 C 133.703125 276.847656 137.90625 283.28125 143.199219 288.542969 C 148.808594 294.117188 155.535156 298.621094 162.03125 303.234375 C 173.179688 311.152344 184.351562 319.050781 195.839844 326.453125 C 204.53125 332.054688 213.730469 336.867188 222.691406 342.050781 C 225.265625 343.539062 227.203125 343.746094 228.757812 340.46875 C 230.273438 337.273438 232.453125 334.398438 234.257812 331.335938 C 241.386719 319.230469 248.476562 307.105469 255.59375 294.996094 C 261.808594 284.410156 267.925781 273.765625 274.292969 263.269531 C 281.394531 251.566406 288.863281 240.082031 295.933594 228.363281 C 304.957031 213.410156 313.273438 198.011719 322.746094 183.355469 C 336.242188 162.476562 341.171875 139.203125 343.175781 115.082031 C 343.851562 106.949219 343.050781 98.644531 342.371094 90.464844 C 341.640625 81.675781 339.4375 73.273438 334.601562 65.625 C 325.335938 50.964844 312.089844 42.832031 294.902344 43.101562 C 287.035156 43.222656 279.222656 46.601562 270.945312 48.941406 M 173.554688 126.164062 C 171.597656 116.308594 170.488281 106.183594 167.457031 96.667969 C 163.984375 85.777344 159.460938 75.09375 154.21875 64.929688 C 145.394531 47.816406 133.710938 32.925781 116.777344 22.859375 C 103.832031 15.164062 90.113281 13.082031 75.558594 17.117188 C 74.085938 17.527344 72.742188 18.402344 71.335938 19.058594 C 72.746094 19.660156 74.15625 20.257812 75.566406 20.859375 C 75.9375 21.019531 76.292969 21.230469 76.671875 21.363281 C 89.214844 25.738281 99.652344 33.585938 109.011719 42.574219 C 118.089844 51.292969 126.203125 61.03125 134.527344 70.507812 C 146.964844 84.671875 156.433594 100.835938 165.152344 117.433594 C 168.15625 123.152344 170.347656 129.300781 173.011719 135.207031 C 173.304688 135.855469 174.261719 136.207031 174.910156 136.695312 C 175.121094 135.894531 175.601562 135.050781 175.488281 134.300781 C 175.101562 131.71875 174.507812 129.167969 173.554688 126.164062 M 16.5 96.328125 C 15.769531 98.191406 14.421875 100.054688 14.417969 101.921875 C 14.40625 107.933594 14.847656 113.953125 15.199219 119.964844 C 15.40625 123.5 15.328125 127.132812 16.140625 130.539062 C 18.75 141.503906 21.3125 152.40625 25.511719 163.019531 C 33.757812 183.867188 45.78125 202.128906 60.746094 218.511719 C 68.164062 226.628906 76.457031 233.957031 84.492188 241.5 C 88.953125 245.6875 93.664062 249.613281 98.328125 253.582031 C 99.058594 254.207031 100.125 254.441406 101.039062 254.855469 C 100.710938 253.855469 100.609375 252.699219 100.023438 251.886719 C 96.371094 246.804688 92.304688 241.992188 88.945312 236.726562 C 81.527344 225.089844 74.332031 213.304688 67.253906 201.453125 C 57.542969 185.191406 47.46875 169.105469 38.574219 152.398438 C 29.144531 134.691406 19.777344 116.777344 16.5 96.328125 M 297.265625 29.636719 C 303.238281 28.5 308.878906 30.039062 314.433594 31.910156 C 330.351562 37.285156 341.667969 48.152344 349.367188 62.675781 C 354.835938 72.992188 357.289062 84.253906 356.539062 96.074219 C 356.476562 97.015625 357.074219 97.996094 357.363281 98.960938 C 357.949219 97.976562 359.003906 97.015625 359.050781 96.003906 C 359.46875 87.222656 360.089844 78.425781 359.863281 69.652344 C 359.71875 64.007812 358.710938 58.28125 357.285156 52.800781 C 352.136719 33.03125 336.507812 21.851562 316.246094 22.753906 C 309.539062 23.050781 302.882812 24.863281 296.242188 26.183594 C 294.347656 26.5625 292.589844 27.640625 290.769531 28.402344 C 292.640625 28.8125 294.515625 29.222656 297.265625 29.636719 M 184.960938 335.898438 C 184.152344 335.378906 183.390625 334.742188 182.519531 334.375 C 181.347656 333.882812 180.085938 333.59375 178.863281 333.21875 C 179.472656 334.148438 179.921875 335.242188 180.710938 335.984375 C 189.835938 344.605469 198.976562 353.210938 208.246094 361.675781 C 209.035156 362.398438 211.113281 362.632812 212.007812 362.101562 C 213.710938 361.089844 215.257812 359.535156 216.320312 357.859375 C 216.792969 357.117188 216.328125 354.871094 215.601562 354.425781 C 205.605469 348.28125 195.488281 342.332031 184.960938 335.898438 Z M 184.960938 335.898438 " fill-opacity="1" fill-rule="nonzero"/></svg>