<?xml version="1.0" encoding="utf-8"?>
<!-- Svg Vector Icons : http://www.onlinewebfonts.com/icon -->
<!DOCTYPE svg PUBLIC "-//W3C//DTD SVG 1.1//EN" "http://www.w3.org/Graphics/SVG/1.1/DTD/svg11.dtd">
<svg version="1.1" xmlns="http://www.w3.org/2000/svg" xmlns:xlink="http://www.w3.org/1999/xlink" x="0px" y="0px" viewBox="0 0 256 256" enable-background="new 0 0 256 256" xml:space="preserve">
<g><g><g><path fill="currentColor" d="M102.7,36.2c-5.7,1.5-10.2,5.3-12.5,10.5c-1.3,2.7-1.5,4.2-1.5,7.3c0,2.2,0.2,4.2,0.5,4.5c0.4,0.4,3.7-0.9,10.8-4.1c5.6-2.6,10.4-4.7,10.6-4.7c0.8,0,21.3,45.5,21.3,47.1c0,4.9-5.8,8.8-10,6.7c-2.4-1.3-3.6-2.9-6.4-9.1c-1.6-3.5-2.9-6.4-2.9-6.5c-0.2-0.4-8.5,3.8-8.3,4.2c0.1,0.3,3.7,8.2,8.1,17.7c5.9,12.9,8,17,8.5,16.5c0.3-0.3,2.9-4.5,5.8-9.1c6.2-10.1,9.6-13.5,16.2-16.7c2.4-1.1,4.4-2.2,4.4-2.3s-5.5-12.3-12.2-26.9c-13.4-29.4-14.2-30.8-20.2-33.7C111.4,36,105.8,35.4,102.7,36.2z"/><path fill="currentColor" d="M231.3,50.5c-12.6,1.8-29.2,9.2-39.8,17.7c-3.5,2.8-27,29-27,30.1c0,0.3,0.3,0.5,0.8,0.5c0.4,0,2.7,1,5.1,2.2c7.6,3.8,13.4,11.1,15.9,19.9l0.9,3.3l20.1-20.1c20.8-20.8,27-27.8,33.1-36.8c5.5-8.2,6.9-12.7,4.5-15C242.5,50.1,238.1,49.5,231.3,50.5z"/><path fill="currentColor" d="M152.2,103.2c-5.8,1-11.7,4.2-15.2,8.2c-1.7,2-42.6,68.2-44.7,72.3c-4.6,9.2-2.4,21.3,5.2,28.8c8.3,8.2,20.1,9.9,30.2,4.5c5.8-3.1,7.5-5.4,29.4-41.1c11.4-18.5,21.3-35,22.1-36.6c6.5-13.5-0.9-30.6-15.2-35C160,103,155.6,102.7,152.2,103.2z M159.9,122.7c1.8,1.1,3.5,4.1,3.5,6.3c0,3.2-3,6.6-6.1,7.2c-2.6,0.4-4.3-0.1-6.3-1.8c-3.4-2.8-3.3-7.9,0.2-11c1.6-1.4,2.4-1.7,4.5-1.7C157.2,121.7,158.9,122.1,159.9,122.7z M119.6,188c3.3,2,4.4,6,2.6,9.6c-1.2,2.6-3.6,4-6.8,4c-2.1,0-2.9-0.3-4.5-1.7c-5.3-4.7-2.2-13,4.8-13C116.9,187,118.6,187.4,119.6,188z"/><path fill="currentColor" d="M22,118.2c-6.9,1.5-12,5-12,8.3c0.1,7.6,16.6,24.3,47.3,47.9c6.1,4.7,14.7,11.3,19,14.6l7.9,6l0.2-1.7c0.3-3.6,1.4-8.3,2.5-10.9c0.7-1.5,4.2-7.6,7.9-13.6c3.6-5.9,6.6-10.8,6.5-10.9c-0.1-0.1-1.1-0.8-2.3-1.7l-2.1-1.5l-4.9,1.2c-2.7,0.7-5,1-5.1,0.9c-0.2-0.1-0.5-2.3-0.9-4.8c-0.4-3.4-0.8-4.6-1.5-4.7c-0.4-0.1-2.7,0.3-4.9,0.9l-4.1,1.1l-0.3-1.2c-0.2-0.6-0.4-2.8-0.7-4.8c-0.2-2-0.5-3.8-0.8-3.9c-0.2-0.1-2.4,0.3-4.9,0.9c-3.5,0.8-4.6,0.9-4.9,0.4c-0.2-0.4-0.6-2.4-0.8-4.7c-0.2-2.3-0.7-4.1-1-4.2c-0.4-0.2-2.7,0.2-5.1,0.8c-5.1,1.2-4.7,1.5-5.3-4.3c-0.2-2-0.5-3.9-0.8-4.2c-0.2-0.4-1.8-0.2-4.9,0.5c-4.9,1.1-5.5,1-5.5-1.5c0-0.7-0.2-1.9-0.3-2.8c-0.3-1.6-0.5-1.6-4.4-2.2C30.6,117.2,26.4,117.2,22,118.2z"/></g></g></g>
</svg>